<svg width="536" height="474" viewBox="0 0 536 474" fill="none" xmlns="http://www.w3.org/2000/svg">
<g filter="url(#filter0_d_202_2634)">
<ellipse rx="11" ry="7" transform="matrix(-0.988247 0.152869 0.421004 0.907059 222.076 354.031)" fill="#1196FF"/>
</g>
<g filter="url(#filter1_d_202_2634)">
<rect width="70" height="6" rx="3" transform="matrix(-0.988247 0.152869 0.421004 0.907059 326 319)" fill="#1196FF"/>
</g>
<g filter="url(#filter2_d_202_2634)">
<rect width="113" height="12" rx="6" transform="matrix(-0.988247 0.152869 0.421004 0.907059 264 306)" fill="#394955"/>
</g>
<g filter="url(#filter3_d_202_2634)">
<ellipse rx="7.5" ry="4.5" transform="matrix(-0.988247 0.152869 0.421004 0.907059 350.483 291.228)" fill="#1196FF"/>
</g>
<g filter="url(#filter4_d_202_2634)">
<ellipse rx="7.5" ry="4.5" transform="matrix(-0.988247 0.152869 0.421004 0.907059 80.4827 272.228)" fill="#1196FF"/>
</g>
<g filter="url(#filter5_d_202_2634)">
<rect width="79" height="12" rx="6" transform="matrix(-0.988247 0.152869 0.421004 0.907059 147 277)" fill="#1196FF"/>
</g>
<g filter="url(#filter6_bd_202_2634)">
<g clip-path="url(#clip0_202_2634)">
<rect width="72" height="64" rx="10" transform="matrix(-0.988247 0.152869 0.421004 0.907059 489 239)" fill="#1196FF"/>
<rect x="-0.567242" y="1.05993" width="70" height="62" rx="9" transform="matrix(-0.988247 0.152869 0.421004 0.907059 487.426 239.185)" stroke="#1196FF" stroke-width="2"/>
</g>
</g>
<g filter="url(#filter7_d_202_2634)">
<rect width="64" height="6" rx="3" transform="matrix(-0.988247 0.152869 0.421004 0.907059 189 229)" fill="#1196FF"/>
</g>
<g filter="url(#filter8_d_202_2634)">
<ellipse rx="12.5" ry="8" transform="matrix(-0.988247 0.152869 0.421004 0.907059 108.015 219.167)" fill="#394955"/>
</g>
<g filter="url(#filter9_d_202_2634)">
<rect width="35" height="6" rx="3" transform="matrix(-0.988247 0.152869 0.421004 0.907059 107 186)" fill="#1196FF"/>
</g>
<g filter="url(#filter10_d_202_2634)">
<rect width="79" height="12" rx="6" transform="matrix(-0.988247 0.152869 0.421004 0.907059 205 153)" fill="#394955"/>
</g>
<g filter="url(#filter11_bd_202_2634)">
<g clip-path="url(#clip1_202_2634)">
<rect width="72" height="64" rx="10" transform="matrix(-0.988247 0.152869 0.421004 0.907059 423 102)" fill="#1196FF"/>
<rect x="-0.567242" y="1.05993" width="70" height="62" rx="9" transform="matrix(-0.988247 0.152869 0.421004 0.907059 421.426 102.185)" stroke="#1196FF" stroke-width="2"/>
</g>
</g>
<g filter="url(#filter12_ddd_202_2634)">
<path d="M153.629 250.063C146.375 234.434 142.748 226.619 142.436 219.992C141.952 209.682 146.736 200.741 155.583 195.425C161.27 192.008 169.784 190.691 186.812 188.057L255.99 177.356C273.018 174.722 281.532 173.405 289.416 174.723C301.682 176.773 313.57 183.135 322.079 192.203C327.55 198.033 331.177 205.847 338.431 221.476V221.476C345.685 237.106 349.312 244.92 349.624 251.548C350.108 261.857 345.323 270.798 336.476 276.114C330.789 279.531 322.275 280.848 305.247 283.482L236.07 294.183C219.042 296.817 210.528 298.134 202.643 296.816C190.377 294.766 178.49 288.404 169.98 279.336C164.51 273.507 160.883 265.692 153.629 250.063V250.063Z" fill="#1196FF"/>
</g>
<g filter="url(#filter13_d_202_2634)">
<path d="M157.629 239.063C150.375 223.434 146.748 215.619 146.436 208.992C145.952 198.682 150.736 189.741 159.583 184.425C165.27 181.008 173.784 179.691 190.812 177.057L259.99 166.356C277.018 163.722 285.532 162.405 293.416 163.723C305.682 165.773 317.57 172.135 326.079 181.203C331.55 187.033 335.177 194.847 342.431 210.476V210.476C349.685 226.106 353.312 233.92 353.624 240.548C354.108 250.857 349.323 259.798 340.476 265.114C334.789 268.531 326.275 269.848 309.247 272.482L240.07 283.183C223.042 285.817 214.528 287.134 206.643 285.816C194.377 283.766 182.49 277.404 173.98 268.336C168.51 262.507 164.883 254.692 157.629 239.063V239.063Z" fill="#1196FF"/>
</g>
<path fill-rule="evenodd" clip-rule="evenodd" d="M259.27 192.489L222.211 198.222C217.297 198.982 213.234 201.114 210.9 204.112C208.581 207.136 208.188 210.798 209.821 214.316L222.1 240.772C223.733 244.291 227.246 247.349 231.873 249.298C236.491 251.221 241.855 251.894 246.769 251.134L283.829 245.401C288.743 244.641 292.806 242.51 295.14 239.512C297.458 236.488 297.852 232.826 296.219 229.307L283.939 202.851C282.306 199.333 278.794 196.275 274.167 194.325C269.549 192.402 264.184 191.729 259.27 192.489ZM288.807 230.454C289.789 232.57 289.551 234.762 288.153 236.566C286.757 238.37 284.323 239.654 281.373 240.11L244.314 245.843C241.364 246.299 238.143 245.89 235.373 244.73C232.599 243.572 230.494 241.742 229.512 239.626L217.233 213.17C216.25 211.053 216.488 208.862 217.887 207.057C219.282 205.254 221.717 203.97 224.667 203.513L261.726 197.781C264.676 197.324 267.896 197.734 270.667 198.893C273.441 200.052 275.545 201.881 276.528 203.998L288.807 230.454ZM246.587 207.955C244.516 208.277 243.393 209.736 244.078 211.215L248.024 219.713L236.119 221.554C234.048 221.875 232.924 223.334 233.609 224.814C234.298 226.294 236.534 227.233 238.605 226.912L250.51 225.071L254.456 233.57C255.141 235.049 257.378 235.988 259.452 235.668C261.523 235.347 262.647 233.887 261.962 232.408L258.016 223.91L269.921 222.07C271.992 221.748 273.115 220.289 272.43 218.81C271.742 217.329 269.505 216.39 267.434 216.711L255.529 218.552L251.584 210.054C250.899 208.575 248.662 207.635 246.587 207.955Z" fill="white"/>
<g filter="url(#filter14_d_202_2634)">
<g clip-path="url(#clip2_202_2634)">
<rect width="17" height="15" rx="4" transform="matrix(-0.988247 0.152869 0.421004 0.907059 415.318 183.043)" fill="#394955"/>
<rect x="-0.567242" y="1.05993" width="70" height="62" rx="9" transform="matrix(-0.988247 0.152869 0.421004 0.907059 454.426 168.185)" stroke="#394955" stroke-width="2"/>
</g>
</g>
<g filter="url(#filter15_d_202_2634)">
<rect width="72" height="64" rx="10" transform="matrix(-0.988247 0.152869 0.421004 0.907059 490 233)" fill="#1196FF"/>
<rect width="17" height="15" rx="4" transform="matrix(-0.988247 0.152869 0.421004 0.907059 445.09 245.78)" fill="white"/>
</g>
<g filter="url(#filter16_d_202_2634)">
<rect width="72" height="64" rx="10" transform="matrix(-0.988247 0.152869 0.421004 0.907059 424 96)" fill="#1196FF"/>
<rect width="17" height="15" rx="4" transform="matrix(-0.988247 0.152869 0.421004 0.907059 379.09 108.78)" fill="white"/>
</g>
<defs>
<filter id="filter0_d_202_2634" x="195.81" y="336.461" width="52.532" height="43.1396" filterUnits="userSpaceOnUse" color-interpolation-filters="sRGB">
<feFlood flood-opacity="0" result="BackgroundImageFix"/>
<feColorMatrix in="SourceAlpha" type="matrix" values="0 0 0 0 0 0 0 0 0 0 0 0 0 0 0 0 0 0 127 0" result="hardAlpha"/>
<feOffset dy="4"/>
<feGaussianBlur stdDeviation="7.5"/>
<feComposite in2="hardAlpha" operator="out"/>
<feColorMatrix type="matrix" values="0 0 0 0 0 0 0 0 0 0 0 0 0 0 0 0 0 0 0.25 0"/>
<feBlend mode="normal" in2="BackgroundImageFix" result="effect1_dropShadow_202_2634"/>
<feBlend mode="normal" in="SourceGraphic" in2="effect1_dropShadow_202_2634" result="shape"/>
</filter>
<filter id="filter1_d_202_2634" x="242.827" y="308.42" width="99.6946" height="45.3037" filterUnits="userSpaceOnUse" color-interpolation-filters="sRGB">
<feFlood flood-opacity="0" result="BackgroundImageFix"/>
<feColorMatrix in="SourceAlpha" type="matrix" values="0 0 0 0 0 0 0 0 0 0 0 0 0 0 0 0 0 0 127 0" result="hardAlpha"/>
<feOffset dy="4"/>
<feGaussianBlur stdDeviation="7.5"/>
<feComposite in2="hardAlpha" operator="out"/>
<feColorMatrix type="matrix" values="0 0 0 0 0 0 0 0 0 0 0 0 0 0 0 0 0 0 0.25 0"/>
<feBlend mode="normal" in2="BackgroundImageFix" result="effect1_dropShadow_202_2634"/>
<feBlend mode="normal" in="SourceGraphic" in2="effect1_dropShadow_202_2634" result="shape"/>
</filter>
<filter id="filter2_d_202_2634" x="139.337" y="295.84" width="142.706" height="56.4795" filterUnits="userSpaceOnUse" color-interpolation-filters="sRGB">
<feFlood flood-opacity="0" result="BackgroundImageFix"/>
<feColorMatrix in="SourceAlpha" type="matrix" values="0 0 0 0 0 0 0 0 0 0 0 0 0 0 0 0 0 0 127 0" result="hardAlpha"/>
<feOffset dy="4"/>
<feGaussianBlur stdDeviation="7.5"/>
<feComposite in2="hardAlpha" operator="out"/>
<feColorMatrix type="matrix" values="0 0 0 0 0 0 0 0 0 0 0 0 0 0 0 0 0 0 0.25 0"/>
<feBlend mode="normal" in2="BackgroundImageFix" result="effect1_dropShadow_202_2634"/>
<feBlend mode="normal" in="SourceGraphic" in2="effect1_dropShadow_202_2634" result="shape"/>
</filter>
<filter id="filter3_d_202_2634" x="327.831" y="275.987" width="45.3042" height="38.4814" filterUnits="userSpaceOnUse" color-interpolation-filters="sRGB">
<feFlood flood-opacity="0" result="BackgroundImageFix"/>
<feColorMatrix in="SourceAlpha" type="matrix" values="0 0 0 0 0 0 0 0 0 0 0 0 0 0 0 0 0 0 127 0" result="hardAlpha"/>
<feOffset dy="4"/>
<feGaussianBlur stdDeviation="7.5"/>
<feComposite in2="hardAlpha" operator="out"/>
<feColorMatrix type="matrix" values="0 0 0 0 0 0 0 0 0 0 0 0 0 0 0 0 0 0 0.25 0"/>
<feBlend mode="normal" in2="BackgroundImageFix" result="effect1_dropShadow_202_2634"/>
<feBlend mode="normal" in="SourceGraphic" in2="effect1_dropShadow_202_2634" result="shape"/>
</filter>
<filter id="filter4_d_202_2634" x="57.8306" y="256.987" width="45.3042" height="38.4814" filterUnits="userSpaceOnUse" color-interpolation-filters="sRGB">
<feFlood flood-opacity="0" result="BackgroundImageFix"/>
<feColorMatrix in="SourceAlpha" type="matrix" values="0 0 0 0 0 0 0 0 0 0 0 0 0 0 0 0 0 0 127 0" result="hardAlpha"/>
<feOffset dy="4"/>
<feGaussianBlur stdDeviation="7.5"/>
<feComposite in2="hardAlpha" operator="out"/>
<feColorMatrix type="matrix" values="0 0 0 0 0 0 0 0 0 0 0 0 0 0 0 0 0 0 0.25 0"/>
<feBlend mode="normal" in2="BackgroundImageFix" result="effect1_dropShadow_202_2634"/>
<feBlend mode="normal" in="SourceGraphic" in2="effect1_dropShadow_202_2634" result="shape"/>
</filter>
<filter id="filter5_d_202_2634" x="55.9373" y="266.84" width="109.106" height="51.2822" filterUnits="userSpaceOnUse" color-interpolation-filters="sRGB">
<feFlood flood-opacity="0" result="BackgroundImageFix"/>
<feColorMatrix in="SourceAlpha" type="matrix" values="0 0 0 0 0 0 0 0 0 0 0 0 0 0 0 0 0 0 127 0" result="hardAlpha"/>
<feOffset dy="4"/>
<feGaussianBlur stdDeviation="7.5"/>
<feComposite in2="hardAlpha" operator="out"/>
<feColorMatrix type="matrix" values="0 0 0 0 0 0 0 0 0 0 0 0 0 0 0 0 0 0 0.25 0"/>
<feBlend mode="normal" in2="BackgroundImageFix" result="effect1_dropShadow_202_2634"/>
<feBlend mode="normal" in="SourceGraphic" in2="effect1_dropShadow_202_2634" result="shape"/>
</filter>
<filter id="filter6_bd_202_2634" x="367.846" y="189" width="198.098" height="169.059" filterUnits="userSpaceOnUse" color-interpolation-filters="sRGB">
<feFlood flood-opacity="0" result="BackgroundImageFix"/>
<feGaussianBlur in="BackgroundImageFix" stdDeviation="25"/>
<feComposite in2="SourceAlpha" operator="in" result="effect1_backgroundBlur_202_2634"/>
<feColorMatrix in="SourceAlpha" type="matrix" values="0 0 0 0 0 0 0 0 0 0 0 0 0 0 0 0 0 0 127 0" result="hardAlpha"/>
<feMorphology radius="7" operator="erode" in="SourceAlpha" result="effect2_dropShadow_202_2634"/>
<feOffset dy="11"/>
<feGaussianBlur stdDeviation="7.5"/>
<feColorMatrix type="matrix" values="0 0 0 0 0.0666667 0 0 0 0 0.588235 0 0 0 0 1 0 0 0 0.2 0"/>
<feBlend mode="normal" in2="effect1_backgroundBlur_202_2634" result="effect2_dropShadow_202_2634"/>
<feBlend mode="normal" in="SourceGraphic" in2="effect2_dropShadow_202_2634" result="shape"/>
</filter>
<filter id="filter7_d_202_2634" x="111.757" y="218.42" width="93.7651" height="44.3867" filterUnits="userSpaceOnUse" color-interpolation-filters="sRGB">
<feFlood flood-opacity="0" result="BackgroundImageFix"/>
<feColorMatrix in="SourceAlpha" type="matrix" values="0 0 0 0 0 0 0 0 0 0 0 0 0 0 0 0 0 0 127 0" result="hardAlpha"/>
<feOffset dy="4"/>
<feGaussianBlur stdDeviation="7.5"/>
<feComposite in2="hardAlpha" operator="out"/>
<feColorMatrix type="matrix" values="0 0 0 0 0 0 0 0 0 0 0 0 0 0 0 0 0 0 0.25 0"/>
<feBlend mode="normal" in2="BackgroundImageFix" result="effect1_dropShadow_202_2634"/>
<feBlend mode="normal" in="SourceGraphic" in2="effect1_dropShadow_202_2634" result="shape"/>
</filter>
<filter id="filter8_d_202_2634" x="80.2078" y="200.662" width="55.6145" height="45.0107" filterUnits="userSpaceOnUse" color-interpolation-filters="sRGB">
<feFlood flood-opacity="0" result="BackgroundImageFix"/>
<feColorMatrix in="SourceAlpha" type="matrix" values="0 0 0 0 0 0 0 0 0 0 0 0 0 0 0 0 0 0 127 0" result="hardAlpha"/>
<feOffset dy="4"/>
<feGaussianBlur stdDeviation="7.5"/>
<feComposite in2="hardAlpha" operator="out"/>
<feColorMatrix type="matrix" values="0 0 0 0 0 0 0 0 0 0 0 0 0 0 0 0 0 0 0.25 0"/>
<feBlend mode="normal" in2="BackgroundImageFix" result="effect1_dropShadow_202_2634"/>
<feBlend mode="normal" in="SourceGraphic" in2="effect1_dropShadow_202_2634" result="shape"/>
</filter>
<filter id="filter9_d_202_2634" x="58.4158" y="175.42" width="65.106" height="39.9531" filterUnits="userSpaceOnUse" color-interpolation-filters="sRGB">
<feFlood flood-opacity="0" result="BackgroundImageFix"/>
<feColorMatrix in="SourceAlpha" type="matrix" values="0 0 0 0 0 0 0 0 0 0 0 0 0 0 0 0 0 0 127 0" result="hardAlpha"/>
<feOffset dy="4"/>
<feGaussianBlur stdDeviation="7.5"/>
<feComposite in2="hardAlpha" operator="out"/>
<feColorMatrix type="matrix" values="0 0 0 0 0 0 0 0 0 0 0 0 0 0 0 0 0 0 0.25 0"/>
<feBlend mode="normal" in2="BackgroundImageFix" result="effect1_dropShadow_202_2634"/>
<feBlend mode="normal" in="SourceGraphic" in2="effect1_dropShadow_202_2634" result="shape"/>
</filter>
<filter id="filter10_d_202_2634" x="113.937" y="142.84" width="109.106" height="51.2822" filterUnits="userSpaceOnUse" color-interpolation-filters="sRGB">
<feFlood flood-opacity="0" result="BackgroundImageFix"/>
<feColorMatrix in="SourceAlpha" type="matrix" values="0 0 0 0 0 0 0 0 0 0 0 0 0 0 0 0 0 0 127 0" result="hardAlpha"/>
<feOffset dy="4"/>
<feGaussianBlur stdDeviation="7.5"/>
<feComposite in2="hardAlpha" operator="out"/>
<feColorMatrix type="matrix" values="0 0 0 0 0 0 0 0 0 0 0 0 0 0 0 0 0 0 0.25 0"/>
<feBlend mode="normal" in2="BackgroundImageFix" result="effect1_dropShadow_202_2634"/>
<feBlend mode="normal" in="SourceGraphic" in2="effect1_dropShadow_202_2634" result="shape"/>
</filter>
<filter id="filter11_bd_202_2634" x="301.846" y="52" width="198.098" height="169.059" filterUnits="userSpaceOnUse" color-interpolation-filters="sRGB">
<feFlood flood-opacity="0" result="BackgroundImageFix"/>
<feGaussianBlur in="BackgroundImageFix" stdDeviation="25"/>
<feComposite in2="SourceAlpha" operator="in" result="effect1_backgroundBlur_202_2634"/>
<feColorMatrix in="SourceAlpha" type="matrix" values="0 0 0 0 0 0 0 0 0 0 0 0 0 0 0 0 0 0 127 0" result="hardAlpha"/>
<feMorphology radius="7" operator="erode" in="SourceAlpha" result="effect2_dropShadow_202_2634"/>
<feOffset dy="11"/>
<feGaussianBlur stdDeviation="7.5"/>
<feColorMatrix type="matrix" values="0 0 0 0 0.0666667 0 0 0 0 0.588235 0 0 0 0 1 0 0 0 0.2 0"/>
<feBlend mode="normal" in2="effect1_backgroundBlur_202_2634" result="effect2_dropShadow_202_2634"/>
<feBlend mode="normal" in="SourceGraphic" in2="effect2_dropShadow_202_2634" result="shape"/>
</filter>
<filter id="filter12_ddd_202_2634" x="96.4026" y="137.206" width="299.254" height="222.127" filterUnits="userSpaceOnUse" color-interpolation-filters="sRGB">
<feFlood flood-opacity="0" result="BackgroundImageFix"/>
<feColorMatrix in="SourceAlpha" type="matrix" values="0 0 0 0 0 0 0 0 0 0 0 0 0 0 0 0 0 0 127 0" result="hardAlpha"/>
<feOffset dy="11"/>
<feGaussianBlur stdDeviation="7.5"/>
<feColorMatrix type="matrix" values="0 0 0 0 0.0666667 0 0 0 0 0.588235 0 0 0 0 1 0 0 0 0.2 0"/>
<feBlend mode="normal" in2="BackgroundImageFix" result="effect1_dropShadow_202_2634"/>
<feColorMatrix in="SourceAlpha" type="matrix" values="0 0 0 0 0 0 0 0 0 0 0 0 0 0 0 0 0 0 127 0" result="hardAlpha"/>
<feOffset dy="9"/>
<feGaussianBlur stdDeviation="23"/>
<feColorMatrix type="matrix" values="0 0 0 0 0.0666667 0 0 0 0 0.588235 0 0 0 0 1 0 0 0 0.12 0"/>
<feBlend mode="normal" in2="effect1_dropShadow_202_2634" result="effect2_dropShadow_202_2634"/>
<feColorMatrix in="SourceAlpha" type="matrix" values="0 0 0 0 0 0 0 0 0 0 0 0 0 0 0 0 0 0 127 0" result="hardAlpha"/>
<feOffset dy="24"/>
<feGaussianBlur stdDeviation="19"/>
<feColorMatrix type="matrix" values="0 0 0 0 0.0666667 0 0 0 0 0.588235 0 0 0 0 1 0 0 0 0.14 0"/>
<feBlend mode="normal" in2="effect2_dropShadow_202_2634" result="effect3_dropShadow_202_2634"/>
<feBlend mode="normal" in="SourceGraphic" in2="effect3_dropShadow_202_2634" result="shape"/>
</filter>
<filter id="filter13_d_202_2634" x="131.403" y="158.206" width="237.254" height="153.127" filterUnits="userSpaceOnUse" color-interpolation-filters="sRGB">
<feFlood flood-opacity="0" result="BackgroundImageFix"/>
<feColorMatrix in="SourceAlpha" type="matrix" values="0 0 0 0 0 0 0 0 0 0 0 0 0 0 0 0 0 0 127 0" result="hardAlpha"/>
<feOffset dy="10"/>
<feGaussianBlur stdDeviation="7.5"/>
<feComposite in2="hardAlpha" operator="out"/>
<feColorMatrix type="matrix" values="0 0 0 0 0 0 0 0 0 0 0 0 0 0 0 0 0 0 0.5 0"/>
<feBlend mode="normal" in2="BackgroundImageFix" result="effect1_dropShadow_202_2634"/>
<feBlend mode="normal" in="SourceGraphic" in2="effect1_dropShadow_202_2634" result="shape"/>
</filter>
<filter id="filter14_d_202_2634" x="376.846" y="168" width="114.098" height="88.0586" filterUnits="userSpaceOnUse" color-interpolation-filters="sRGB">
<feFlood flood-opacity="0" result="BackgroundImageFix"/>
<feColorMatrix in="SourceAlpha" type="matrix" values="0 0 0 0 0 0 0 0 0 0 0 0 0 0 0 0 0 0 127 0" result="hardAlpha"/>
<feMorphology radius="7" operator="erode" in="SourceAlpha" result="effect1_dropShadow_202_2634"/>
<feOffset dy="11"/>
<feGaussianBlur stdDeviation="7.5"/>
<feColorMatrix type="matrix" values="0 0 0 0 0.0666667 0 0 0 0 0.588235 0 0 0 0 1 0 0 0 0.2 0"/>
<feBlend mode="normal" in2="BackgroundImageFix" result="effect1_dropShadow_202_2634"/>
<feBlend mode="normal" in="SourceGraphic" in2="effect1_dropShadow_202_2634" result="shape"/>
</filter>
<filter id="filter15_d_202_2634" x="403.846" y="228" width="128.098" height="99.0586" filterUnits="userSpaceOnUse" color-interpolation-filters="sRGB">
<feFlood flood-opacity="0" result="BackgroundImageFix"/>
<feColorMatrix in="SourceAlpha" type="matrix" values="0 0 0 0 0 0 0 0 0 0 0 0 0 0 0 0 0 0 127 0" result="hardAlpha"/>
<feOffset dy="10"/>
<feGaussianBlur stdDeviation="7.5"/>
<feComposite in2="hardAlpha" operator="out"/>
<feColorMatrix type="matrix" values="0 0 0 0 0 0 0 0 0 0 0 0 0 0 0 0 0 0 0.5 0"/>
<feBlend mode="normal" in2="BackgroundImageFix" result="effect1_dropShadow_202_2634"/>
<feBlend mode="normal" in="SourceGraphic" in2="effect1_dropShadow_202_2634" result="shape"/>
</filter>
<filter id="filter16_d_202_2634" x="337.846" y="91" width="128.098" height="99.0586" filterUnits="userSpaceOnUse" color-interpolation-filters="sRGB">
<feFlood flood-opacity="0" result="BackgroundImageFix"/>
<feColorMatrix in="SourceAlpha" type="matrix" values="0 0 0 0 0 0 0 0 0 0 0 0 0 0 0 0 0 0 127 0" result="hardAlpha"/>
<feOffset dy="10"/>
<feGaussianBlur stdDeviation="7.5"/>
<feComposite in2="hardAlpha" operator="out"/>
<feColorMatrix type="matrix" values="0 0 0 0 0 0 0 0 0 0 0 0 0 0 0 0 0 0 0.5 0"/>
<feBlend mode="normal" in2="BackgroundImageFix" result="effect1_dropShadow_202_2634"/>
<feBlend mode="normal" in="SourceGraphic" in2="effect1_dropShadow_202_2634" result="shape"/>
</filter>
<clipPath id="clip0_202_2634">
<rect width="72" height="64" rx="10" transform="matrix(-0.988247 0.152869 0.421004 0.907059 489 239)" fill="white"/>
</clipPath>
<clipPath id="clip1_202_2634">
<rect width="72" height="64" rx="10" transform="matrix(-0.988247 0.152869 0.421004 0.907059 423 102)" fill="white"/>
</clipPath>
<clipPath id="clip2_202_2634">
<rect width="72" height="64" rx="10" transform="matrix(-0.988247 0.152869 0.421004 0.907059 456 168)" fill="white"/>
</clipPath>
</defs>
</svg>
