<svg
        xmlns="http://www.w3.org/2000/svg"
        width="488"
        height="489"
        fill="none"
        viewBox="0 0 488 489"
>
    <g filter="url(#a)">
        <mask
                id="b"
                width="338"
                height="339"
                x="75"
                y="75"
                fill="#000"
                maskUnits="userSpaceOnUse"
        >
            <path fill="#fff" d="M75 75h338v339H75z" />
            <path
                    d="M244.9 410.87c-.16 1.16-1.83 1.16-1.99 0l-.34-2.56a.83.83 0 0 1 .84-.94c1.03 0 1.83.9 1.7 1.93zm-26.75-4.02a1.26 1.26 0 1 1 2.48.37l-.56 1.94c-.32 1.12-1.98.87-1.96-.3zm51.55 2.01c.02 1.17-1.64 1.42-1.96.3l-.6-2.06a1.28 1.28 0 1 1 2.52-.38zm-75.5-7.6a1.26 1.26 0 1 1 2.38.74l-.8 1.77c-.5 1.06-2.1.56-1.9-.59zm99.73 1.92c.2 1.15-1.4 1.65-1.9.59l-.92-2.02c-.33-.7.05-1.53.79-1.76a1.3 1.3 0 0 1 1.66 1zM171.38 392.1a1.25 1.25 0 1 1 2.25 1.08l-1.07 1.63c-.65.98-2.16.25-1.79-.86zm145.66 1.85c.36 1.11-1.15 1.84-1.79.86l-1.27-1.95a1.3 1.3 0 1 1 2.33-1.12zm-166.86-14.32a1.26 1.26 0 1 1 2.06 1.4l-1.3 1.47c-.79.87-2.17-.08-1.65-1.12zm188.34 1.75c.52 1.04-.86 1.99-1.64 1.12l-1.64-1.83a1.32 1.32 0 1 1 2.17-1.49zm-207.44-17.25a1.26 1.26 0 1 1 1.83 1.7l-1.53 1.27c-.9.74-2.13-.4-1.45-1.35zm226.8 1.62c.68.95-.55 2.1-1.45 1.35l-2-1.65a1.34 1.34 0 1 1 1.95-1.8zM114.5 345.96a1.26 1.26 0 1 1 1.57 1.96l-1.72 1.04c-1 .6-2.05-.71-1.24-1.55zm260.2 1.45c.8.84-.24 2.15-1.24 1.55l-2.3-1.4a1.35 1.35 0 1 1 1.67-2.1zM100.8 325.54a1.26 1.26 0 1 1 1.25 2.17l-1.85.77c-1.08.44-1.92-1-1-1.72zm287.79 1.22c.92.71.08 2.17-1 1.72l-2.56-1.06a1.36 1.36 0 1 1 1.36-2.35zM90.32 303.3a1.27 1.27 0 1 1 .92 2.34l-1.96.48c-1.14.28-1.75-1.28-.73-1.84zm308.94.98c1.02.56.4 2.12-.73 1.84l-2.75-.68a1.37 1.37 0 1 1 1-2.54zM83.27 279.74a1.27 1.27 0 1 1 .56 2.46l-2.03.19c-1.16.1-1.54-1.53-.44-1.94zm323.18.71c1.1.41.72 2.04-.44 1.94l-2.89-.27a1.38 1.38 0 1 1 .61-2.67zm3.56-24.63c1.15.24 1.02 1.91-.14 1.98l-2.95.17a1.39 1.39 0 1 1 .21-2.75zm-330.18-.42a1.27 1.27 0 1 1 .19 2.52l-2.08-.12c-1.16-.07-1.29-1.74-.14-1.98zm330.04-24.46c1.16.06 1.29 1.74.14 1.98l-2.88.6a1.4 1.4 0 1 1-.21-2.75zm-329.85-.12c.76-.04 1.4.6 1.33 1.37a1.27 1.27 0 0 1-1.52 1.15l-2.03-.42c-1.15-.24-1.02-1.91.14-1.98zm326-24.47c1.15-.1 1.53 1.53.43 1.94l-2.72 1a1.38 1.38 0 1 1-.6-2.67zm-324.22 0 2.03.2c.76.06 1.29.79 1.12 1.53a1.27 1.27 0 0 1-1.68.92l-1.91-.71c-1.1-.41-.72-2.04.44-1.94m316.73-23.73c1.14-.28 1.75 1.28.73 1.84l-2.48 1.38a1.37 1.37 0 1 1-1-2.54zm-309.98 1.84c-1.02-.56-.4-2.12.73-1.84l1.96.48c.74.19 1.14.98.86 1.69a1.27 1.27 0 0 1-1.78.65zm299.05-24.2c1.08-.45 1.92 1 1 1.72l-2.2 1.69a1.36 1.36 0 1 1-1.35-2.35zm-288.39 1.72c-.92-.71-.08-2.16 1-1.72l1.85.77a1.26 1.26 0 1 1-1.25 2.17zm274.25-22.2c1-.6 2.05.71 1.24 1.55l-1.87 1.94a1.35 1.35 0 1 1-1.67-2.1zm-260.35 1.55c-.8-.84.24-2.15 1.24-1.55l1.72 1.04a1.26 1.26 0 1 1-1.57 1.96zm243.32-19.69c.9-.74 2.13.4 1.45 1.35l-1.5 2.1a1.34 1.34 0 1 1-1.95-1.8zM129.93 123c-.68-.95.55-2.1 1.45-1.35l1.53 1.27a1.26 1.26 0 1 1-1.83 1.7zm206.95-16.75c.78-.87 2.16.08 1.64 1.12l-1.11 2.2a1.32 1.32 0 1 1-2.17-1.48zm-187.59 1.12c-.52-1.05.86-1.99 1.64-1.12l1.3 1.47c.51.56.4 1.44-.22 1.87-.63.43-1.5.2-1.83-.47zm165.96-13.43c.64-.98 2.15-.25 1.79.86l-.73 2.2a1.3 1.3 0 1 1-2.33-1.12zm-144.48.86c-.37-1.11 1.14-1.84 1.79-.86l1.06 1.62a1.25 1.25 0 1 1-2.24 1.08zm121.26-9.82c.5-1.06 2.1-.56 1.9.59l-.37 2.18a1.29 1.29 0 1 1-2.45-.75zm-98.15.59c-.2-1.15 1.4-1.65 1.9-.59l.81 1.78a1.26 1.26 0 1 1-2.38.74zm73.86-5.98c.32-1.12 1.98-.87 1.96.3l-.04 2.14a1.28 1.28 0 1 1-2.51-.38zm-49.63.3c-.02-1.17 1.63-1.42 1.96-.3l.56 1.93a1.26 1.26 0 1 1-2.48.38zm24.8-2.01c.16-1.16 1.83-1.16 1.99 0l.2 1.57a1.7 1.7 0 0 1-1.7 1.93c-.5 0-.9-.44-.83-.94z"
            />
        </mask>
        <path
                fill="#1196FF"
                fill-opacity=".3"
                d="M244.9 410.87c-.16 1.16-1.83 1.16-1.99 0l-.34-2.56a.83.83 0 0 1 .84-.94c1.03 0 1.83.9 1.7 1.93zm-26.75-4.02a1.26 1.26 0 1 1 2.48.37l-.56 1.94c-.32 1.12-1.98.87-1.96-.3zm51.55 2.01c.02 1.17-1.64 1.42-1.96.3l-.6-2.06a1.28 1.28 0 1 1 2.52-.38zm-75.5-7.6a1.26 1.26 0 1 1 2.38.74l-.8 1.77c-.5 1.06-2.1.56-1.9-.59zm99.73 1.92c.2 1.15-1.4 1.65-1.9.59l-.92-2.02c-.33-.7.05-1.53.79-1.76a1.3 1.3 0 0 1 1.66 1zM171.38 392.1a1.25 1.25 0 1 1 2.25 1.08l-1.07 1.63c-.65.98-2.16.25-1.79-.86zm145.66 1.85c.36 1.11-1.15 1.84-1.79.86l-1.27-1.95a1.3 1.3 0 1 1 2.33-1.12zm-166.86-14.32a1.26 1.26 0 1 1 2.06 1.4l-1.3 1.47c-.79.87-2.17-.08-1.65-1.12zm188.34 1.75c.52 1.04-.86 1.99-1.64 1.12l-1.64-1.83a1.32 1.32 0 1 1 2.17-1.49zm-207.44-17.25a1.26 1.26 0 1 1 1.83 1.7l-1.53 1.27c-.9.74-2.13-.4-1.45-1.35zm226.8 1.62c.68.95-.55 2.1-1.45 1.35l-2-1.65a1.34 1.34 0 1 1 1.95-1.8zM114.5 345.96a1.26 1.26 0 1 1 1.57 1.96l-1.72 1.04c-1 .6-2.05-.71-1.24-1.55zm260.2 1.45c.8.84-.24 2.15-1.24 1.55l-2.3-1.4a1.35 1.35 0 1 1 1.67-2.1zM100.8 325.54a1.26 1.26 0 1 1 1.25 2.17l-1.85.77c-1.08.44-1.92-1-1-1.72zm287.79 1.22c.92.71.08 2.17-1 1.72l-2.56-1.06a1.36 1.36 0 1 1 1.36-2.35zM90.32 303.3a1.27 1.27 0 1 1 .92 2.34l-1.96.48c-1.14.28-1.75-1.28-.73-1.84zm308.94.98c1.02.56.4 2.12-.73 1.84l-2.75-.68a1.37 1.37 0 1 1 1-2.54zM83.27 279.74a1.27 1.27 0 1 1 .56 2.46l-2.03.19c-1.16.1-1.54-1.53-.44-1.94zm323.18.71c1.1.41.72 2.04-.44 1.94l-2.89-.27a1.38 1.38 0 1 1 .61-2.67zm3.56-24.63c1.15.24 1.02 1.91-.14 1.98l-2.95.17a1.39 1.39 0 1 1 .21-2.75zm-330.18-.42a1.27 1.27 0 1 1 .19 2.52l-2.08-.12c-1.16-.07-1.29-1.74-.14-1.98zm330.04-24.46c1.16.06 1.29 1.74.14 1.98l-2.88.6a1.4 1.4 0 1 1-.21-2.75zm-329.85-.12c.76-.04 1.4.6 1.33 1.37a1.27 1.27 0 0 1-1.52 1.15l-2.03-.42c-1.15-.24-1.02-1.91.14-1.98zm326-24.47c1.15-.1 1.53 1.53.43 1.94l-2.72 1a1.38 1.38 0 1 1-.6-2.67zm-324.22 0 2.03.2c.76.06 1.29.79 1.12 1.53a1.27 1.27 0 0 1-1.68.92l-1.91-.71c-1.1-.41-.72-2.04.44-1.94m316.73-23.73c1.14-.28 1.75 1.28.73 1.84l-2.48 1.38a1.37 1.37 0 1 1-1-2.54zm-309.98 1.84c-1.02-.56-.4-2.12.73-1.84l1.96.48c.74.19 1.14.98.86 1.69a1.27 1.27 0 0 1-1.78.65zm299.05-24.2c1.08-.45 1.92 1 1 1.72l-2.2 1.69a1.36 1.36 0 1 1-1.35-2.35zm-288.39 1.72c-.92-.71-.08-2.16 1-1.72l1.85.77a1.26 1.26 0 1 1-1.25 2.17zm274.25-22.2c1-.6 2.05.71 1.24 1.55l-1.87 1.94a1.35 1.35 0 1 1-1.67-2.1zm-260.35 1.55c-.8-.84.24-2.15 1.24-1.55l1.72 1.04a1.26 1.26 0 1 1-1.57 1.96zm243.32-19.69c.9-.74 2.13.4 1.45 1.35l-1.5 2.1a1.34 1.34 0 1 1-1.95-1.8zM129.93 123c-.68-.95.55-2.1 1.45-1.35l1.53 1.27a1.26 1.26 0 1 1-1.83 1.7zm206.95-16.75c.78-.87 2.16.08 1.64 1.12l-1.11 2.2a1.32 1.32 0 1 1-2.17-1.48zm-187.59 1.12c-.52-1.05.86-1.99 1.64-1.12l1.3 1.47c.51.56.4 1.44-.22 1.87-.63.43-1.5.2-1.83-.47zm165.96-13.43c.64-.98 2.15-.25 1.79.86l-.73 2.2a1.3 1.3 0 1 1-2.33-1.12zm-144.48.86c-.37-1.11 1.14-1.84 1.79-.86l1.06 1.62a1.25 1.25 0 1 1-2.24 1.08zm121.26-9.82c.5-1.06 2.1-.56 1.9.59l-.37 2.18a1.29 1.29 0 1 1-2.45-.75zm-98.15.59c-.2-1.15 1.4-1.65 1.9-.59l.81 1.78a1.26 1.26 0 1 1-2.38.74zm73.86-5.98c.32-1.12 1.98-.87 1.96.3l-.04 2.14a1.28 1.28 0 1 1-2.51-.38zm-49.63.3c-.02-1.17 1.63-1.42 1.96-.3l.56 1.93a1.26 1.26 0 1 1-2.48.38zm24.8-2.01c.16-1.16 1.83-1.16 1.99 0l.2 1.57a1.7 1.7 0 0 1-1.7 1.93c-.5 0-.9-.44-.83-.94z"
        />
        <path
                fill="#1196FF"
                d="m244.9 410.87 1.98.26zm-1.99 0 1.99-.26zm.5-3.5v2zm-23.34 1.79 1.92.55zm-1.96-.3-2-.03zm51.59 0 2-.03zm-1.96.3 1.92-.56zm-71.96-5.4 1.81.84zm-1.9-.58 1.97.33zm100.05 0-1.97.33zm-1.9.59 1.82-.84zm-119.47-8.96 1.67 1.1zm-1.79-.86 1.9.63zm146.27 0 1.9-.62zm-1.79.86 1.68-1.1zM150.93 382.5l1.5 1.33zm-1.64-1.12-1.78-.9zm189.23 0 1.78-.9zm-1.64 1.12 1.49-1.34zm-205.5-15.4 1.28 1.54zm-1.45-1.35 1.63 1.15zm227.95 0 1.63-1.16zm-1.45 1.35-1.28 1.54zm-242.08-18.14 1.03 1.71zm-1.24-1.55 1.44 1.38zm261.59 0 1.44-1.39zm-1.24 1.55-1.03 1.71zm-273.25-20.48.76 1.85zm-1-1.72L98 325.18zm289.39 0 1.21-1.58zm-1 1.72-.76 1.85zM89.28 306.12l.48 1.94zm-.73-1.84.97 1.75zm310.7 0-.96 1.75zm-.72 1.84-.48 1.94zM81.8 282.4l.18 1.99zm-.44-1.94-.7-1.87zm325.1 0-.7 1.88zm-.45 1.94-.19 1.99zm4-26.57-.4 1.96zm-.14 1.98.1 2h.01zm-331.93 0-.11 2zm-.14-1.98.4 1.96zm332.07-24.88.11-2zm.14 1.98.41 1.95zm-332.21 0-.41 1.95zm.14-1.98-.11-2zm328.07-24.59-.18-1.99zm.44 1.94.7 1.87zM81.8 206.35l-.19 2zm-.44 1.94-.7 1.87zm317.17-25.67.48 1.94zm.73 1.84.97 1.75zm-310.7 0-.98 1.75zm.72-1.84.48-1.94zm298.32-22.36.77 1.85zm1 1.72 1.21 1.58zm-289.39 0L98 163.56zm1-1.72.76-1.85zm273.25-20.48 1.03 1.72zm1.24 1.55 1.44 1.39zm-261.59 0 1.44-1.38zm1.24-1.55 1.03-1.71zm242.08-18.14 1.27 1.54zm1.45 1.35 1.63 1.16zm-227.95 0-1.63 1.16zm1.45-1.35 1.28-1.54zm205.5-15.4 1.49 1.34zm1.64 1.12 1.78.9zm-189.23 0-1.78.9zm1.64-1.12 1.5-1.33zm164.32-12.31 1.68 1.1zm1.79.86 1.9.62zm-146.27 0 1.9-.63zm1.79-.86 1.67-1.1zm119.47-8.96 1.82.84zm1.9.59 1.97.33zm-100.05 0 1.97-.34zm1.9-.59 1.81-.83zm71.96-5.39 1.92.56zm1.96.3 2 .03zm-51.6 0-2 .03zm1.97-.3 1.92-.55zm22.84-1.71 1.99.26zm1.99 0 1.98-.26zm-1.5 3.5v-2zm-.83-.94-1.98-.27zm-21.94 1.08-1.92.56zm-1.04 1.6.3 1.98zm47.56-1.47-1.92-.56zm-70.56 5.11-1.82.83zm95.31 2-.6 1.91zm-.8-1.76 1.83.83zm-117.48 8.56 1.67-1.1zm-.5 1.82.86 1.8zm141.38.39.88-1.8zm-.52-1.89-1.68-1.1zM152.24 107.7l-1.5 1.34zm-.23 1.88 1.12 1.65zm183.47.46-1.14 1.65zm-.24-1.97-1.49-1.33zm-202.33 14.84-1.27 1.54zm221.47 2.39-1.37 1.46zm.05-2 1.28 1.53zm-238.36 17.52-1.04 1.71zm.33 1.86-1.57-1.25zm254.4.49-1.57 1.24zm.36-2-1.04-1.71zm-269.1 19.86.77-1.85zm.61 1.8-1.73-1zm281.71.43-1.73 1zm.66-1.94-.76-1.85zM91.24 183.1l.48-1.94zm.86 1.69-1.86-.73zm302.74.34 1.86-.73zm.94-1.83-.48-1.94zM83.83 206.54l-.18 2zm318.08 1.76 1.95-.44zm1.21-1.68-.18-1.99zm.61 2.68-.7-1.88zM81.35 232.18l-2-.14zm-1.33-1.36-.12-2zm325.44 1.44 2-.15zm1.67 1.26-.41-1.96zM81.35 256.55l-2 .15zm-1.52-1.15.4 1.96zm325.63 1.08 2 .15zm1.67-1.26-.41 1.96zm-.21 2.75.1 2zM245.1 79.44l-1.98.27zM84.95 280.65l-1.95.45zm-1.12 1.55.19 1.99zM269.66 82.02l-2-.04zM92.1 303.95l1.87-.73zm-.86 1.69-.48-1.94zm202.32-217.9-1.97-.33zM102.67 325.91l1.73-1zm-.6 1.8-.77-1.85zM316.3 97l-1.9-.63zM116.4 346.06l1.56-1.25zm-.33 1.86-1.04-1.71zM337.4 109.56l1.78.9zM132.96 363.94l-1.36 1.46zm-.05 1.89-1.27-1.54zM356.4 125.1l-1.64-1.16zM152 379.16l-1.13 1.65zm.23 1.87-1.5-1.33zm-37.74-35.07 1.44 1.39zm258.33-202.69 1.44 1.39zm-199.72 248.1-.87 1.8zm.51 1.81 1.67 1.1zm180.76-29.74 1.36 1.46zm2 .2-1.63 1.16zm38.46-60.03 1.86.73zm1.94-.7.97-1.76zm-225.4 89.2 1.9.62zM79.83 233.33l-.41 1.96zm70.35-124.23 1.78-.9zm204.25 256.34-1.27 1.54zM218.15 81.89l-2 .03zm177.63 223.55-.48 1.94zM291.9 399.99l-.6-1.91zm1.66 1-1.97.34zM100.8 163.2l-1.22 1.59zm190.3 238.55 1.82-.83zm-160.03-37.62 1.63 1.15zM90.32 303.3l-.97-1.75zM386.4 163.67l1.22 1.58zM195.8 400.27l.6-1.92zm.78 1.72 1.82.83zM80.02 257.92l.11-2zm51.06-133.3 1.63-1.16zm204.16 256.04 1.49-1.33zm.24-1.96-1.14-1.65zM194.2 87.49l-1.97.33zm190.83 239.93-.76 1.85zm-.66-1.94 1.74 1zm-116.2 80-.3-1.97zm1.48 1.24-2 .04zm-2.51.38-1.92.55zM401.9 280.44l-1.95-.44zm1.82-1 .7-1.87zM150.18 379.63l1.78.9zm-49.37-54.1-1.22-1.58zm295.97-139.7.97 1.75zm-177.19 219.8.3-1.98zm1.04 1.6 1.92.55zm182.5-125.11.18-2zM314.5 390.98l.88 1.8zm1.81.76 1.9-.62zm54.49-46.17-1.57-1.24zm2.03-.1-1.44 1.38zm-154.68 61.38-2-.03zM114.5 142.77l-1.44 1.4zm199.48 250.1 1.67-1.1zM171.38 96.62l-1.9.63zm199.77 250.94 1.04-1.72zM245.1 409.3l1.99.26zm92.3-30.12-1.78.9zm49-54.1 1.22-1.6zm-192.2 76.17-1.96-.33zM83.28 209l.7-1.88zm159.3 199.31 1.99-.26zm2.33 2.56-1.99-.26a1 1 0 0 1 1-.87q.28-.01.6.22c.24.18.36.44.39.65l-1.99.26-1.98.26c.46 3.48 5.49 3.48 5.95 0zm-1.99 0 1.99-.26-.34-2.56-1.99.26-1.98.26.34 2.56zm2.2-1.57-1.99-.27-.2 1.58 1.98.26 1.98.26.2-1.57zm-24.48-2.07-1.92-.56-.56 1.93 1.92.56 1.92.55.56-1.93zm-.56 1.93-1.92-.56a1 1 0 0 1 1.1-.7q.3.01.58.3c.2.22.28.49.28.7l-2-.04-2-.03c-.06 3.5 4.91 4.25 5.88.88zm-1.96-.3 2 .04.03-2.01-2-.04-2-.03-.03 2zm51.59 0-2 .04c0-.21.08-.48.28-.7.18-.2.4-.28.57-.3q.28-.06.64.12c.25.15.41.38.47.58l-1.92.56-1.92.55c.97 3.37 5.94 2.63 5.88-.88zm-1.96.3 1.92-.56-.6-2.05-1.91.55-1.92.55.59 2.06zm1.92-2.44-2 .04.04 2.14 2-.04 2-.03-.04-2.15zM196.6 402l-1.82-.84-.81 1.78 1.81.84 1.82.83.82-1.78zm-.81 1.78-1.82-.84a1 1 0 0 1 1.2-.54q.28.08.52.4c.17.24.2.51.17.72l-1.97-.33-1.97-.33c-.59 3.45 4.22 4.94 5.68 1.75zm-1.9-.59 1.97.33.33-1.93-1.97-.33-1.97-.33-.33 1.93zm100.05 0-1.97.33a1 1 0 0 1 .69-1.12q.26-.09.65.03c.27.11.46.32.55.51l-1.82.84-1.81.83c1.46 3.2 6.26 1.7 5.68-1.75zm-1.9.59 1.82-.84-.92-2.01-1.82.83-1.82.84.93 2.01zm1.53-2.77-1.97.33.37 2.19 1.97-.34 1.97-.33-.37-2.19zm-119.94-7.81-1.67-1.1-1.07 1.63 1.68 1.1 1.67 1.09 1.06-1.63zm-1.06 1.62-1.68-1.1a1 1 0 0 1 1.27-.35q.27.11.46.47c.13.26.13.54.06.75l-1.9-.63-1.9-.62c-1.1 3.33 3.44 5.51 5.36 2.58zm-1.79-.86 1.9.63.6-1.85-1.9-.63-1.9-.62-.6 1.85zm146.27 0-1.9.63a1 1 0 0 1 .52-1.22 1.03 1.03 0 0 1 1.27.35l-1.68 1.1-1.67 1.1c1.92 2.93 6.45.75 5.36-2.58zm-1.79.86 1.68-1.1-1.28-1.94-1.67 1.1-1.68 1.1 1.28 1.94zm1.06-3.07-1.9.62.73 2.22 1.9-.63 1.9-.62-.73-2.21zm-164.07-10.7-1.5-1.34-1.3 1.46 1.5 1.34 1.48 1.33 1.31-1.46zm-1.3 1.46-1.5-1.34a1 1 0 0 1 1.3-.16q.25.15.39.53c.09.28.04.56-.05.75l-1.79-.9-1.78-.9c-1.58 3.14 2.58 5.96 4.91 3.35zm-1.65-1.12 1.79.9.88-1.75-1.78-.9-1.8-.9-.87 1.75zm189.23 0-1.79.9a1 1 0 0 1 .33-1.28 1.03 1.03 0 0 1 1.3.16l-1.48 1.34-1.5 1.33c2.34 2.61 6.5-.22 4.92-3.35zm-1.64 1.12 1.49-1.34-1.64-1.83-1.49 1.34-1.5 1.33 1.65 1.83zm.53-3.32-1.79.9 1.11 2.2 1.79-.9 1.78-.9-1.1-2.2zm-204.5-13.35-1.27-1.54-1.53 1.27 1.27 1.54 1.28 1.54 1.53-1.27zm-1.53 1.27-1.27-1.54c.16-.14.42-.24.72-.22q.39.05.6.25t.3.58c.04.3-.05.56-.17.73l-1.63-1.15-1.63-1.16c-2.03 2.86 1.66 6.28 4.36 4.05zm-1.45-1.35 1.63 1.15 1.15-1.62-1.63-1.15-1.63-1.16-1.15 1.62zm227.95 0-1.63 1.15a1 1 0 0 1 .13-1.3 1 1 0 0 1 .6-.26q.47-.01.72.22l-1.27 1.54-1.28 1.54c2.7 2.23 6.39-1.19 4.36-4.05zm-1.45 1.35 1.27-1.54-2-1.65-1.27 1.54-1.27 1.54 2 1.65zm-.05-3.46-1.63 1.16 1.5 2.1 1.63-1.15 1.63-1.16-1.5-2.1zm-240.31-15.72-1.04-1.71-1.71 1.03 1.03 1.72 1.03 1.7 1.72-1.03zm-1.72 1.04-1.03-1.72a1 1 0 0 1 1.3.24 1.03 1.03 0 0 1-.06 1.32l-1.45-1.4-1.44-1.38c-2.43 2.53.7 6.46 3.7 4.65zm-1.24-1.55 1.44 1.38 1.4-1.44-1.45-1.39-1.44-1.38-1.39 1.44zm261.59 0-1.44 1.38a1 1 0 0 1-.06-1.31c.11-.15.3-.29.55-.34.29-.07.56 0 .74.1l-1.03 1.72-1.03 1.71c3 1.8 6.14-2.12 3.7-4.65zm-1.24 1.55 1.03-1.72-2.3-1.39-1.04 1.72-1.03 1.71 2.31 1.39zm-.63-3.5-1.44 1.4 1.87 1.93 1.44-1.38 1.44-1.4-1.87-1.93zm-270.77-17.75-.76-1.85-1.86.77.77 1.85.76 1.85 1.86-.77zm-1.85.77-.77-1.85a1 1 0 0 1 1.25.42q.16.25.11.64c-.04.3-.2.53-.37.66l-1.22-1.59-1.21-1.58c-2.78 2.13-.27 6.49 2.97 5.15zm-1-1.72 1.22 1.59 1.6-1.23-1.22-1.58-1.22-1.59-1.6 1.23zm289.39 0-1.22 1.59a1 1 0 0 1-.26-1.3c.09-.15.25-.32.5-.41.27-.11.55-.1.75-.01l-.77 1.85-.76 1.85c3.23 1.34 5.76-3.01 2.97-5.15zm-1 1.72.77-1.85-2.56-1.06-.77 1.85-.76 1.85 2.56 1.06zm-1.2-3.4-1.22 1.58 2.2 1.69 1.22-1.59 1.21-1.58-2.2-1.7zM91.24 305.63l-.48-1.94-1.97.48.49 1.94.48 1.94 1.96-.48zm-1.96.48-.48-1.94a1 1 0 0 1 1.17.6c.06.18.1.4.01.66-.08.28-.27.48-.46.59l-.97-1.75-.97-1.75c-3.06 1.7-1.23 6.38 2.18 5.53zm-.73-1.84.97 1.75 1.77-.98-.97-1.75-.97-1.75-1.77.98zm310.7 0-.96 1.75a1 1 0 0 1-.45-1.24q.1-.27.43-.5c.26-.14.54-.16.74-.11l-.48 1.94-.47 1.94c3.4.84 5.23-3.84 2.17-5.53zm-.72 1.84.49-1.94-2.76-.68-.48 1.94-.48 1.94 2.75.68zm-1.75-3.22-.97 1.75 2.48 1.38.97-1.75.97-1.75-2.49-1.38zM83.83 282.2l-.18-2-2.04.2.19 1.99.18 1.99 2.04-.2zm-2.03.19-.19-2a1 1 0 0 1 1.07.78q.08.27-.08.64c-.13.27-.34.44-.55.52l-.7-1.88-.69-1.87c-3.29 1.22-2.17 6.12 1.32 5.8zm-.44-1.94.7 1.88 1.9-.71-.69-1.88-.7-1.87-1.9.7zm325.1 0-.7 1.88a1 1 0 0 1-.63-1.16 1.03 1.03 0 0 1 1.07-.77l-.19 1.99-.18 1.99c3.49.32 4.6-4.58 1.32-5.8zm-.45 1.94.19-2-2.9-.26-.18 1.99-.18 1.99 2.88.27zm-2.28-2.95-.7 1.88 2.72 1 .7-1.87.7-1.87-2.72-1.01zm6.28-23.62-.4 1.96a1 1 0 0 1-.8-1.05q0-.28.27-.6c.2-.21.46-.31.67-.33l.12 2 .11 2c3.5-.2 3.87-5.22.44-5.93zm-.14 1.98-.12-2-2.95.17.12 2 .1 2 2.96-.17zm-2.74-2.58-.41 1.96 2.88.6.41-1.96.41-1.95-2.88-.6zm-327.11 2.7.11-2-2.07-.12-.12 2-.1 2 2.07.12zm-2.08-.12.12-2a1 1 0 0 1 .94.93q.03.28-.18.62c-.16.25-.4.39-.61.43l-.41-1.96-.41-1.95c-3.43.71-3.06 5.73.44 5.93zm-.14-1.98.4 1.96 2.04-.42-.41-1.96-.41-1.96-2.03.43zm332.07-24.88-.12 2a1 1 0 0 1-.94-.93 1.03 1.03 0 0 1 .8-1.05l.4 1.96.41 1.95c3.43-.71 3.06-5.73-.44-5.93zm.14 1.98-.4-1.96-2.9.6.42 1.96.4 1.96 2.9-.6zm-3.1-2.15-.1 2 2.94.16.12-2 .1-1.99-2.94-.17zm-327.08 2.57.4-1.96-2.02-.42-.41 1.96-.41 1.95 2.03.43zm-2.03-.42.4-1.96A1 1 0 0 1 79 232a1.03 1.03 0 0 1-.94.92l-.12-2-.11-1.99c-3.5.2-3.87 5.22-.44 5.93zm.14-1.98.12 2 2.07-.12-.11-2-.12-2-2.07.12zm328.07-24.59.19 2a1 1 0 0 1-1.07-.78 1.03 1.03 0 0 1 .63-1.16l.7 1.88.69 1.87c3.28-1.22 2.17-6.12-1.32-5.8zm.44 1.94-.7-1.88-2.71 1.01.7 1.88.7 1.87 2.7-1zm-3.33-1.67.19 2 2.89-.28-.19-1.99-.19-1.99-2.88.27zm-321.32-.27-.19 2 2.04.18.18-1.99.19-1.99-2.04-.19zm1.47 2.65.7-1.88-1.92-.7-.7 1.87-.69 1.87 1.91.71zm-1.91-.71.7-1.88a1 1 0 0 1 .62 1.16 1.03 1.03 0 0 1-1.07.77l.19-1.99.18-1.99c-3.49-.32-4.6 4.58-1.32 5.8zm317.17-25.67.48 1.94a1 1 0 0 1-1.17-.6 1.03 1.03 0 0 1 .45-1.24l.97 1.74.97 1.75c3.07-1.7 1.22-6.38-2.18-5.53zm.73 1.84-.97-1.75-2.48 1.38.97 1.75.97 1.75 2.48-1.38zm-3.48-1.16.48 1.94 2.75-.68-.48-1.94-.48-1.94-2.75.68zm-307.23 1.16.97-1.75a1 1 0 0 1 .45 1.24 1.03 1.03 0 0 1-1.17.6l.48-1.93.48-1.94c-3.41-.85-5.24 3.84-2.18 5.53zm.73-1.84-.48 1.94 1.96.48.48-1.94.48-1.94-1.96-.48zm1.04 2.82.96-1.75-1.76-.98-.97 1.75-.97 1.75 1.77.98zm297.28-25.18.77 1.85a1 1 0 0 1-1.25-.43 1.03 1.03 0 0 1 .26-1.3l1.22 1.6 1.21 1.58c2.79-2.13.26-6.49-2.97-5.15zm1 1.72-1.22-1.59-2.2 1.69 1.22 1.59 1.22 1.58 2.2-1.69zm-3.56-.66.77 1.85 2.56-1.06-.77-1.85-.76-1.85-2.56 1.06zm-285.83.66 1.22-1.59a1 1 0 0 1 .26 1.3 1.02 1.02 0 0 1-1.25.42l.77-1.85.76-1.85c-3.24-1.34-5.75 3.02-2.97 5.15zm1-1.72-.77 1.85 1.86.77.76-1.85.77-1.85-1.86-.77zm.6 2.94 1.22-1.58-1.6-1.23-1.22 1.59-1.21 1.58 1.6 1.23zm272.65-23.42 1.03 1.72a1 1 0 0 1-1.3-.24 1.03 1.03 0 0 1 .06-1.32l1.45 1.4 1.44 1.38c2.43-2.53-.7-6.46-3.7-4.65zm1.24 1.55-1.44-1.38-1.87 1.94 1.44 1.38 1.44 1.39 1.87-1.94zm-3.54-.16 1.03 1.72 2.3-1.4-1.03-1.7-1.03-1.72-2.3 1.39zm-258.05.16 1.44-1.38a1 1 0 0 1 .06 1.31 1.03 1.03 0 0 1-1.3.23l1.04-1.7 1.03-1.72c-3-1.8-6.14 2.12-3.71 4.65zm1.24-1.55-1.03 1.72 1.71 1.03 1.03-1.71 1.04-1.72-1.72-1.03zm.15 3 1.44-1.4-1.39-1.43-1.44 1.38-1.44 1.39 1.39 1.44zm241.93-21.14 1.27 1.54a1 1 0 0 1-1.31-.04 1.03 1.03 0 0 1-.14-1.31l1.63 1.16 1.63 1.16c2.03-2.87-1.66-6.28-4.36-4.05zm1.45 1.35-1.63-1.16-1.5 2.11 1.64 1.16 1.63 1.16 1.5-2.11zm-3.45.3 1.28 1.54 2-1.65-1.28-1.54-1.28-1.54-2 1.65zm-224.5-.3 1.63-1.16a1 1 0 0 1-.13 1.31 1.03 1.03 0 0 1-1.32.04l1.27-1.54 1.28-1.54c-2.7-2.23-6.39 1.19-4.36 4.05zm1.45-1.35-1.27 1.54 1.53 1.27 1.27-1.54 1.28-1.54-1.53-1.27zm-.3 2.97 1.63-1.15-1.15-1.63-1.63 1.16-1.63 1.16 1.15 1.62zm205.8-18.37 1.49 1.34a1 1 0 0 1-1.3.16 1.03 1.03 0 0 1-.33-1.28l1.78.9 1.78.9c1.58-3.13-2.57-5.96-4.91-3.35zm1.64 1.12-1.79-.9-1.1 2.2 1.78.9 1.78.9 1.11-2.2zm-3.28.71 1.49 1.34 1.64-1.83-1.5-1.34-1.48-1.33-1.64 1.83zm-185.95-.71 1.79-.9a1 1 0 0 1-.33 1.28 1.03 1.03 0 0 1-1.3-.16l1.48-1.34 1.5-1.33c-2.34-2.61-6.5.22-4.92 3.35zm1.64-1.12-1.49 1.34 1.3 1.46 1.5-1.34 1.49-1.33-1.3-1.46zm-.75 2.87 1.78-.9-.88-1.75-1.79.9-1.78.9.88 1.75zm165.07-15.18 1.68 1.1a1 1 0 0 1-1.27.35 1.03 1.03 0 0 1-.52-1.21l1.9.62 1.9.62c1.1-3.33-3.44-5.51-5.36-2.58zm1.79.86-1.9-.63-.73 2.21 1.9.63 1.9.62.73-2.2zm-3.06 1.08 1.67 1.1 1.28-1.95-1.68-1.1-1.67-1.09-1.27 1.95zM170.77 94.8l1.9-.63a1 1 0 0 1-.52 1.22 1.03 1.03 0 0 1-1.27-.35l1.68-1.1 1.67-1.1c-1.92-2.93-6.45-.75-5.36 2.58zm1.79-.86-1.68 1.1 1.07 1.62 1.67-1.1 1.67-1.1-1.06-1.62zm-1.18 2.7 1.9-.62-.61-1.85-1.9.63-1.9.62.6 1.85zm120.65-11.66 1.82.84a1 1 0 0 1-1.2.54 1.03 1.03 0 0 1-.7-1.12l1.98.33 1.97.33c.59-3.45-4.22-4.94-5.68-1.75zm1.9.59-1.97-.34-.37 2.19 1.97.33 1.97.34.37-2.19zm-2.82 1.43 1.82.83.92-2.01-1.82-.84-1.81-.83-.93 2.01zm-97.23-1.43 1.97-.34a1 1 0 0 1-.69 1.13 1.03 1.03 0 0 1-1.2-.54l1.82-.84 1.81-.83c-1.46-3.2-6.27-1.7-5.68 1.75zm1.9-.59-1.82.84.81 1.77 1.82-.83 1.82-.83-.82-1.78zm-1.57 2.52 1.97-.34-.33-1.93-1.97.34-1.97.33.33 1.93zm73.53-7.9 1.92.55a1 1 0 0 1-1.1.7 1.03 1.03 0 0 1-.85-1l1.99.04 2 .03c.06-3.5-4.9-4.25-5.88-.88zm1.96.29-2-.04-.04 2.14 2 .04 2 .03.04-2.14zm-2.55 1.76 1.92.55.6-2.05-1.93-.56-1.92-.55-.6 2.05zm-49.04-1.76 2-.04a1 1 0 0 1-.85 1q-.28.06-.64-.12a1 1 0 0 1-.47-.58l1.92-.56 1.92-.55c-.97-3.37-5.94-2.63-5.88.88zm1.96-.3-1.92.56.56 1.93 1.92-.56 1.92-.55-.56-1.93zm-1.92 2.3 2-.03-.04-2.01-2 .04-2 .03.03 2.01zm24.76-4.01 1.99.26a1 1 0 0 1-1 .87 1.03 1.03 0 0 1-1-.87l2-.26 1.98-.26c-.46-3.48-5.49-3.48-5.95 0zm1.99 0-1.99.26.21 1.58 1.98-.27 1.99-.26-.21-1.57zm-2.33 2.56 1.99.26.34-2.56-1.99-.26-1.98-.26-.34 2.55zm.84.94v-2c.69 0 1.24.6 1.15 1.32l-1.99-.26-1.98-.27a2.83 2.83 0 0 0 2.81 3.21zm-22.78.14-1.92.56a.74.74 0 0 1 .6-.94l.28 1.98.3 1.98a3.26 3.26 0 0 0 2.66-4.13zm47.56 1.75.3-1.98c.41.06.7.48.58.91l-1.92-.55-1.92-.56a3.28 3.28 0 0 0 2.65 4.15zm-71.6 3.49-1.82.83c-.19-.42.04-.89.46-1.02l.58 1.91.6 1.91a3.26 3.26 0 0 0 2-4.46zm95.31 2 .6-1.9c.4.12.61.57.43.97L291.1 87l-1.82-.84a3.3 3.3 0 0 0 2.01 4.51zm-118.28 6.8-1.67 1.1a.74.74 0 0 1 .3-1.08l.86 1.8.87 1.8a3.26 3.26 0 0 0 1.31-4.71zm140.88 2.2.88-1.79c.36.18.5.65.27 1.01l-1.67-1.1-1.68-1.1a3.3 3.3 0 0 0 1.32 4.79zm-162.26 9.95-1.5 1.34a.74.74 0 0 1 .14-1.11l1.13 1.65 1.12 1.65a3.26 3.26 0 0 0 .6-4.86zm183.24 2.34 1.14-1.64c.32.22.4.7.11 1l-1.49-1.33-1.49-1.33a3.32 3.32 0 0 0 .59 4.95zM132.9 122.91l-1.27 1.54a.74.74 0 0 1-.04-1.11l1.36 1.46 1.37 1.47a3.26 3.26 0 0 0-.14-4.9zm221.47 2.39 1.36-1.46c.29.26.28.73-.03 1l-1.28-1.55-1.27-1.54a3.34 3.34 0 0 0-.15 5zm-238.31 15.52-1.04 1.71a.74.74 0 0 1-.2-1.1l1.57 1.25 1.56 1.25a3.26 3.26 0 0 0-.86-4.83zm254.73 2.35 1.57-1.24c.23.3.16.75-.18.95l-1.03-1.7-1.04-1.72a3.35 3.35 0 0 0-.9 4.95zm-268.74 17.86-.76 1.85a.74.74 0 0 1-.36-1.05l1.73 1 1.73 1c.98-1.7.26-3.9-1.57-4.65zm282.33 2.23 1.73-1c.19.33.05.76-.31.9l-.77-1.84-.76-1.85a3.36 3.36 0 0 0-1.63 4.78zM91.24 183.1l-.48 1.94a.74.74 0 0 1-.52-.98l1.86.73 1.87.73a3.26 3.26 0 0 0-2.25-4.36zm303.6 2.03 1.86-.73a.63.63 0 0 1-.44.84l-.48-1.94-.48-1.94a3.37 3.37 0 0 0-2.33 4.5zm-311 21.41-.2 2a.74.74 0 0 1-.64-.9l1.95.45 1.95.44c.43-1.91-.9-3.8-2.88-3.98zm318.07 1.76 1.95-.44a.62.62 0 0 1-.55.75l-.19-1.99-.18-1.99a3.38 3.38 0 0 0-2.98 4.11zm1.82 1-.7-1.88c.38-.14.75.09.83.44l-1.95.44-1.95.44a3.38 3.38 0 0 0 4.47 2.43zM81.35 232.18l2 .15a3.27 3.27 0 0 0-3.45-3.5l.12 2 .11 1.99a.73.73 0 0 1-.77-.78zm324.11.08 2-.15a.62.62 0 0 1-.66.66l.12-2 .11-2a3.38 3.38 0 0 0-3.56 3.64zm1.67 1.26-.41-1.96c.38-.08.7.2.73.55l-1.99.15-2 .15a3.4 3.4 0 0 0 4.08 3.07zM81.35 256.55l2-.15a3.27 3.27 0 0 0-3.93-2.96l.4 1.96.42 1.96a.73.73 0 0 1-.88-.66zm324.11-.07 2 .15a.6.6 0 0 1-.74.55l.4-1.96.42-1.96a3.4 3.4 0 0 0-4.07 3.07zm1.46 1.49-.12-2c.38-.02.68.3.65.66l-1.99-.15-2-.15a3.38 3.38 0 0 0 3.57 3.63zM245.1 79.44l-1.98.27a.3.3 0 0 1 .28-.34v4a3.7 3.7 0 0 0 3.69-4.19zM84.95 280.65l-1.95.45c-.1-.43.2-.85.65-.9l.18 2 .19 1.99a3.26 3.26 0 0 0 2.88-3.98zM269.66 82.02l-2-.04c0-.45.4-.77.83-.7l-.3 1.98-.3 1.97a3.28 3.28 0 0 0 3.77-3.18zM92.1 303.95l-1.86.73a.74.74 0 0 1 .52-.98l.48 1.94.48 1.94a3.26 3.26 0 0 0 2.25-4.36zm201.46-216.2-1.97-.34a.7.7 0 0 1 .9-.57l-.59 1.91-.6 1.91c1.9.6 3.9-.6 4.23-2.58zM102.67 325.9l-1.73 1a.74.74 0 0 1 .36-1.05l.76 1.85.77 1.85a3.26 3.26 0 0 0 1.57-4.65zM316.31 97l-1.9-.63a.7.7 0 0 1 .97-.4l-.88 1.79-.88 1.8a3.3 3.3 0 0 0 4.6-1.94zM116.4 346.06l-1.57 1.24a.74.74 0 0 1 .2-1.1l1.04 1.72 1.03 1.71a3.26 3.26 0 0 0 .86-4.82zm221-236.5-1.78-.9a.68.68 0 0 1 1-.26l-1.14 1.64-1.14 1.65a3.32 3.32 0 0 0 4.85-1.23zM132.97 363.94l-1.36 1.46a.74.74 0 0 1 .04-1.11l1.27 1.54 1.28 1.54a3.26 3.26 0 0 0 .14-4.9zM356.4 125.1l-1.64-1.16c.24-.33.71-.37 1-.1l-1.37 1.46-1.37 1.46a3.34 3.34 0 0 0 5-.5zM152 379.16l-1.13 1.65a.74.74 0 0 1-.13-1.11l1.49 1.33 1.49 1.34a3.26 3.26 0 0 0-.6-4.86zm-35.61-33.1 1.56-1.25a3.26 3.26 0 0 0-4.9-.23l1.44 1.38 1.44 1.39a.74.74 0 0 1-1.1-.05zm-31.45-65.4 1.95-.45a3.27 3.27 0 0 0-4.33-2.34l.7 1.87.7 1.88a.73.73 0 0 1-.97-.52zm287.88-137.39-1.44-1.38c.28-.3.74-.26.98.04l-1.57 1.24-1.57 1.24a3.35 3.35 0 0 0 5.04.25zm-199.72 248.1-.87 1.8a.74.74 0 0 1-.3-1.08l1.68 1.1 1.67 1.1a3.26 3.26 0 0 0-1.3-4.72zm181.27-27.93 1.36 1.46a.66.66 0 0 1-.99-.1l1.63-1.16 1.64-1.16a3.34 3.34 0 0 0-5.01-.5zm40.46-59.83 1.86.73a.63.63 0 0 1-.9.31l.98-1.75.97-1.75c-1.8-1-4.04-.15-4.78 1.73zM173.1 391.37l.87-1.8a3.25 3.25 0 0 0-4.5 1.91l1.9.62 1.9.63a.75.75 0 0 1-1.04.44zM81.35 232.19l-2-.15a.73.73 0 0 1 .89-.66l-.41 1.96-.41 1.96c1.95.4 3.78-1.01 3.93-2.97zm70.66-122.61-1.13-1.65a.74.74 0 0 1 1.08.28l-1.78.9-1.8.9a3.26 3.26 0 0 0 4.75 1.22zm202.42 255.87 1.28-1.54c.32.26.32.73.03 1l-1.36-1.47-1.37-1.46a3.34 3.34 0 0 0 .15 5zM219.6 83.1l-.29-1.98c.43-.06.84.27.84.72l-2 .04-2 .03a3.26 3.26 0 0 0 3.74 3.17zm176.19 222.33.48-1.94c.38.1.57.5.44.84l-1.86-.73-1.87-.73c-.73 1.89.34 4.01 2.33 4.5zM291.9 399.99l.6 1.9a.7.7 0 0 1-.91-.56l1.97-.33 1.97-.34a3.3 3.3 0 0 0-4.23-2.58zM102.67 162.83l-1.73-1a.74.74 0 0 1 1.09-.21l-1.22 1.58-1.22 1.59a3.26 3.26 0 0 0 4.81-.97zm188.44 238.92 1.82-.83c.18.4-.04.85-.43.97l-.6-1.9-.6-1.91a3.3 3.3 0 0 0-2 4.5zm-158.15-37.81 1.37-1.47a3.26 3.26 0 0 0-4.88.5l1.63 1.16 1.63 1.15a.74.74 0 0 1-1.1.12zm-40.86-60 1.87-.72a3.26 3.26 0 0 0-4.62-1.67l.97 1.75.97 1.75a.73.73 0 0 1-1.05-.37zm294.3-140.27-1.22-1.6a.64.64 0 0 1 .94.2l-1.74.99-1.73 1a3.36 3.36 0 0 0 4.97 1zM195.8 400.27l-.58 1.9a.74.74 0 0 1-.46-1.02l1.82.84 1.82.83c.83-1.8-.14-3.9-2-4.47zM81.35 256.54l-2 .15a.73.73 0 0 1 .78-.78l-.11 2-.11 2a3.27 3.27 0 0 0 3.44-3.52zm51.61-131.75-1.36-1.46a.74.74 0 0 1 1.11.12l-1.63 1.15-1.63 1.16a3.26 3.26 0 0 0 4.88.5zm202.28 255.87 1.49-1.34c.28.32.21.79-.11 1.01l-1.14-1.64-1.14-1.65a3.32 3.32 0 0 0-.6 4.95zM195.81 88.47l-.58-1.9c.42-.14.87.13.95.58l-1.97.34-1.97.33a3.25 3.25 0 0 0 4.16 2.56zm189.23 238.95.77-1.85c.36.15.5.58.31.9l-1.74-.99-1.73-1c-1 1.75-.26 4 1.63 4.79zM268.2 405.48l.3 1.98a.72.72 0 0 1-.83-.7l2-.04 2-.04a3.28 3.28 0 0 0-3.78-3.17zM92.1 184.8l-1.86-.73c.16-.4.64-.6 1.04-.37l-.96 1.75-.97 1.75c1.74.96 3.9.15 4.62-1.67zM267.15 407.1l1.92-.55a.72.72 0 0 1-.58.91l-.3-1.98-.3-1.97a3.28 3.28 0 0 0-2.66 4.14zM401.9 280.44l1.95.44a.62.62 0 0 1-.82.44l.7-1.88.7-1.87a3.38 3.38 0 0 0-4.48 2.43zM152 379.16l1.12-1.65a3.26 3.26 0 0 0-4.74 1.22l1.79.9 1.78.9a.74.74 0 0 1-1.08.28zm-49.34-53.25 1.73-1a3.26 3.26 0 0 0-4.8-.96l1.21 1.59 1.22 1.58a.74.74 0 0 1-1.1-.21zm294.1-140.08-.96-1.75c.34-.19.76-.02.89.32l-1.86.73-1.87.72a3.37 3.37 0 0 0 4.77 1.74zM219.6 405.64l-.29 1.98a.74.74 0 0 1-.6-.94l1.93.56 1.92.55a3.26 3.26 0 0 0-2.67-4.13zm183.53-123.51.19-2c.38.04.63.4.55.76l-1.95-.44-1.95-.44a3.38 3.38 0 0 0 2.98 4.1zM314.5 390.98l.88 1.8a.7.7 0 0 1-.97-.42l1.9-.62 1.9-.62a3.3 3.3 0 0 0-4.59-1.94zm56.3-45.41 1.57 1.24c-.24.3-.7.34-.98.04l1.44-1.38 1.44-1.4a3.35 3.35 0 0 0-5.04.26zm-151.2 60.06.28-1.98a3.26 3.26 0 0 0-3.73 3.17l2 .03 2 .04c-.01.45-.42.78-.85.72zM116.4 142.68l-1.57-1.25a.73.73 0 0 1 1.11-.04l-1.44 1.39-1.44 1.38a3.26 3.26 0 0 0 4.9-.23zm197.58 250.18 1.67-1.1a.7.7 0 0 1-.27 1.02l-.88-1.8-.88-1.8a3.3 3.3 0 0 0-1.31 4.78zM173.1 97.36l-.87-1.8c.4-.18.9.01 1.04.45l-1.9.62-1.9.63a3.25 3.25 0 0 0 4.5 1.91zm198.04 250.2 1.04-1.7c.34.2.41.65.18.95l-1.57-1.24-1.57-1.24a3.35 3.35 0 0 0 .9 4.95zm-127.74 59.81v2a.3.3 0 0 1-.29-.34l1.98.27 1.99.26a3.7 3.7 0 0 0-3.69-4.19zm92.07-28.67 1.14 1.64a.68.68 0 0 1-1-.26l1.79-.9 1.78-.9a3.32 3.32 0 0 0-4.85-1.23zm48.9-53.22 1.74 1a.64.64 0 0 1-.94.18l1.22-1.59 1.22-1.58a3.36 3.36 0 0 0-4.97 1zm-188.57 74.78.6-1.9a3.25 3.25 0 0 0-4.17 2.56l1.97.33 1.97.33a.75.75 0 0 1-.95.6zM84.95 208.1l-1.95-.45c.1-.42.54-.68.97-.52l-.7 1.88-.7 1.87c1.87.7 3.9-.43 4.33-2.34zM242.58 408.3l1.98-.26c.1.72-.47 1.32-1.16 1.32v-4a2.83 2.83 0 0 0-2.8 3.2z"
                mask="url(#b)"
        />
    </g>
    <defs>
        <filter
                id="a"
                width="487.81"
                height="488.74"
                x="0"
                y="0"
                color-interpolation-filters="sRGB"
                filterUnits="userSpaceOnUse"
        >
            <feFlood flood-opacity="0" result="BackgroundImageFix" />
            <feColorMatrix
                    in="SourceAlpha"
                    result="hardAlpha"
                    values="0 0 0 0 0 0 0 0 0 0 0 0 0 0 0 0 0 0 127 0"
            />
            <feOffset />
            <feGaussianBlur stdDeviation="37.5" />
            <feColorMatrix
                    values="0 0 0 0 0.0666667 0 0 0 0 0.588235 0 0 0 0 1 0 0 0 1 0"
            />
            <feBlend in2="BackgroundImageFix" result="effect1_dropShadow_8956_7652" />
            <feBlend
                    in="SourceGraphic"
                    in2="effect1_dropShadow_8956_7652"
                    result="shape"
            />
        </filter>
    </defs>
</svg>