<svg width="24" height="24" viewBox="0 0 24 24" fill="none" xmlns="http://www.w3.org/2000/svg">
<path d="M20 15.39V13.27C20 12.79 19.95 12.32 19.87 11.85C21.1 11.47 22 10.34 22 8.99C22 7.34 20.65 5.99 19 5.99C18.91 5.99 18.82 6.01 18.72 6.02L19 5.74C18.1 4.84 16.93 4.82 15.86 5.32L17 3.35C15.57 2.52 14.05 3.23 13 4.47V2C11.57 2 10.66 3.03 10.25 4.35C9.47 3.29 8.31 2.68 7 3.18L7.76 5.18C6.8 4.86 5.8 4.96 5 5.75L5.28 6.03C5.19 6.03 5.1 6 5 6C3.35 6 2 7.35 2 9C2 10.34 2.88 11.46 4.09 11.84C4.04 12.22 4 12.6 4 13V15.39C4 15.8 3.86 16.18 3.64 16.52C2.61 18.09 2 19.97 2 21.99H22C22 19.97 21.39 18.09 20.36 16.52C20.14 16.18 20 15.79 20 15.39ZM4.62 9.92C4.26 9.77 4 9.41 4 9C4 8.45 4.45 8 5 8C5.23 8 5.43 8.09 5.6 8.22C5.21 8.74 4.88 9.31 4.62 9.92ZM17.5 18H7.5C7.22 18 7 17.78 7 17.5C7 17.22 7.22 17 7.5 17H8V16.5C8 16.22 8.22 16 8.5 16C8.78 16 9 16.22 9 16.5V17H16V16.5C16 16.22 16.22 16 16.5 16C16.78 16 17 16.22 17 16.5V17H17.5C17.78 17 18 17.22 18 17.5C18 17.78 17.78 18 17.5 18ZM8 13V11H10V13H8ZM11 15V14H12V15H11ZM13 15V14H14V15H13ZM15 13V11H17V13H15ZM19.31 9.94C19.05 9.34 18.72 8.78 18.34 8.27C18.52 8.11 18.75 8.01 19 8.01C19.55 8.01 20 8.46 20 9.01C20 9.45 19.71 9.82 19.31 9.95V9.94ZM17 10H7V9H17V10Z" fill="white"/>
</svg>
