<svg width="24" height="24" viewBox="0 0 24 24" fill="none" xmlns="http://www.w3.org/2000/svg">
<path fill-rule="evenodd" clip-rule="evenodd" d="M4.76453 10.5858C5.03203 10.6197 5.28962 10.5479 5.50758 10.3852C5.71563 10.2225 5.85433 9.98202 5.88405 9.71756C5.91377 9.4531 5.84442 9.18564 5.68591 8.97408C5.52739 8.76251 5.28962 8.62379 5.02212 8.58986L3.27844 8.15076C3.14965 8.11184 3.02085 8.09886 2.88215 8.11184C2.75335 8.12581 2.62456 8.16672 2.50567 8.23159C2.39669 8.29646 2.28771 8.38428 2.20845 8.48907C2.1292 8.59485 2.06975 8.7156 2.03012 8.84534C2.0004 8.97507 1.99049 9.1098 2.01031 9.24253C2.02022 9.37526 2.06975 9.503 2.1391 9.61776C2.20845 9.73253 2.29762 9.83233 2.4066 9.91116C2.51558 9.99 2.63447 10.0469 2.76326 10.0768L4.50694 10.5459C4.5862 10.5738 4.67537 10.5868 4.76453 10.5858ZM8.58874 5.00717C8.64818 5.22473 8.77698 5.41633 8.95531 5.55006C9.13364 5.68479 9.3516 5.75365 9.57947 5.74566C9.66863 5.75963 9.74789 5.75963 9.83705 5.74566C10.0847 5.67581 10.3027 5.50815 10.4315 5.28061C10.5603 5.05208 10.5999 4.78263 10.5306 4.52815L10.0649 2.77173C10.0352 2.641 9.97576 2.51825 9.8965 2.41047C9.81724 2.30169 9.71817 2.21087 9.60919 2.14202C9.4903 2.07316 9.37141 2.02825 9.23271 2.00929C9.10392 1.99132 8.97512 1.99931 8.84633 2.03424C8.71753 2.06916 8.59865 2.13004 8.48967 2.21287C8.38069 2.2947 8.30143 2.39849 8.23208 2.51525C8.17263 2.63202 8.133 2.76175 8.11319 2.89448C8.10328 3.02821 8.11319 3.16293 8.15282 3.29067L8.58874 5.00717ZM13.374 14.9868C13.2848 14.889 13.1659 14.8102 13.047 14.7573C12.9182 14.7034 12.7894 14.6764 12.6606 14.6764C12.5219 14.6764 12.3931 14.7034 12.2643 14.7573C12.1454 14.8102 12.0266 14.889 11.9374 14.9868L8.46985 18.5396C8.06365 18.9338 7.51875 19.1533 6.95404 19.1533C6.38932 19.1533 5.84442 18.9338 5.43823 18.5396C5.24008 18.34 5.08156 18.1025 4.97258 17.84C4.8636 17.5775 4.80416 17.2971 4.80416 17.0127C4.80416 16.7283 4.8636 16.4478 4.97258 16.1854C5.08156 15.9229 5.24008 15.6854 5.43823 15.4858L8.96521 11.9929C9.06429 11.9031 9.15345 11.7933 9.2129 11.6696C9.27234 11.5458 9.30206 11.4111 9.31197 11.2734C9.31197 11.1357 9.29215 10.9989 9.24262 10.8712C9.19308 10.7425 9.11382 10.6267 9.02466 10.5289C8.92559 10.4321 8.8067 10.3563 8.6779 10.3054C8.55902 10.2555 8.42031 10.2325 8.28161 10.2375C8.14291 10.2435 8.01412 10.2764 7.88532 10.3363C7.76643 10.3962 7.65745 10.481 7.56829 10.5858L4.01158 14.0687C3.62519 14.4569 3.31807 14.917 3.11002 15.4239C2.90196 15.9309 2.79298 16.4738 2.79298 17.0227C2.79298 17.5715 2.90196 18.1144 3.11002 18.6214C3.31807 19.1284 3.62519 19.5884 4.01158 19.9766C4.39796 20.3648 4.8537 20.6722 5.35897 20.8818C5.86424 21.0924 6.39923 21.2001 6.94413 21.2001C7.48903 21.2001 8.02402 21.0924 8.52929 20.8818C9.03457 20.6722 9.4903 20.3648 9.87668 19.9766L13.374 16.4538C13.473 16.36 13.5523 16.2472 13.6117 16.1205C13.6613 15.9948 13.691 15.858 13.691 15.7203C13.691 15.5826 13.6613 15.4459 13.6117 15.3201C13.5523 15.1934 13.473 15.0806 13.374 14.9868ZM5.18064 6.59393C5.36887 6.77856 5.61656 6.88234 5.87415 6.88334C6.00294 6.88434 6.13173 6.85939 6.25062 6.80949C6.37942 6.75959 6.4884 6.68674 6.57756 6.59393C6.7658 6.40731 6.86487 6.15383 6.86487 5.89037C6.86487 5.62691 6.7658 5.37342 6.57756 5.1868L5.29952 3.89943C5.11129 3.73576 4.8636 3.65094 4.61592 3.65992C4.36824 3.6699 4.13047 3.77369 3.95213 3.95132C3.7738 4.12996 3.67473 4.36747 3.66482 4.61896C3.65492 4.87045 3.74408 5.11595 3.9026 5.30656L5.18064 6.59393ZM21.1115 13.909L19.3679 13.44C19.2391 13.3951 19.1004 13.3771 18.9617 13.3881C18.8329 13.399 18.6942 13.439 18.5753 13.5038C18.4564 13.5687 18.3474 13.6585 18.2681 13.7663C18.179 13.8751 18.1195 13.9998 18.0898 14.1326C18.0502 14.2663 18.0403 14.405 18.07 14.5407C18.0898 14.6774 18.1393 14.8072 18.2087 14.9229C18.288 15.0387 18.3771 15.1385 18.496 15.2143C18.605 15.2902 18.7338 15.3421 18.8725 15.366L20.6162 15.8351H20.8738C21.1413 15.869 21.3988 15.7972 21.6168 15.6345C21.8249 15.4718 21.9636 15.2313 21.9933 14.9668C22.023 14.7024 21.9536 14.4349 21.7951 14.2234C21.6366 14.0118 21.3988 13.8731 21.1313 13.8391L21.1115 13.909ZM15.2861 18.9787C15.2563 18.8519 15.1969 18.7342 15.1176 18.6304C15.0285 18.5266 14.9294 18.4398 14.8204 18.3749C14.7114 18.31 14.5826 18.2681 14.4538 18.2521C14.325 18.2362 14.1963 18.2452 14.0675 18.2801C13.8198 18.3499 13.6018 18.5176 13.473 18.7451C13.3442 18.9737 13.3046 19.2431 13.374 19.4976L13.8396 21.254C13.899 21.4716 14.0278 21.6632 14.2062 21.7969C14.3845 21.9316 14.6025 22.0005 14.8303 21.9925C14.9195 22.0025 14.9987 22.0025 15.0879 21.9925C15.2167 21.9586 15.3356 21.9007 15.4347 21.8209C15.5436 21.74 15.6328 21.6402 15.6923 21.5265C15.7616 21.4127 15.8012 21.286 15.821 21.1552C15.831 21.0245 15.821 20.8918 15.7913 20.765L15.2861 18.9787ZM18.6942 17.4119C18.5059 17.2482 18.2582 17.1634 18.0106 17.1723C17.7629 17.1823 17.5251 17.2861 17.3468 17.4638C17.1684 17.6424 17.0694 17.8799 17.0595 18.1314C17.0495 18.3829 17.1387 18.6284 17.2972 18.819L18.5753 20.1064C18.7635 20.292 19.0112 20.3968 19.2787 20.3968C19.5363 20.3968 19.784 20.292 19.9722 20.1064C20.1604 19.9197 20.2595 19.6663 20.2595 19.4028C20.2595 19.1393 20.1604 18.8859 19.9722 18.6992L18.6942 17.4119ZM21.0521 7.0031C21.0719 6.17279 20.8341 5.35746 20.3883 4.66187C19.9326 3.96629 19.2886 3.4224 18.5356 3.10006C17.7728 2.77772 16.9307 2.69189 16.1282 2.85356C15.3158 3.01623 14.5727 3.41841 13.9981 4.00921L10.5008 7.56196C10.4117 7.65676 10.3324 7.76953 10.2829 7.89328C10.2333 8.01703 10.2036 8.14976 10.2036 8.28448C10.2036 8.41821 10.2333 8.54994 10.2829 8.67369C10.3324 8.79744 10.4117 8.90921 10.5107 9.00401C10.5999 9.09882 10.7089 9.17267 10.8377 9.22357C10.9566 9.27446 11.0854 9.30041 11.2241 9.30041C11.3529 9.29941 11.4916 9.27247 11.6105 9.22157C11.7293 9.16968 11.8482 9.09383 11.9374 8.99903L15.4049 5.44627C15.8111 5.05208 16.356 4.83253 16.9208 4.83253C17.4855 4.83253 18.0304 5.05208 18.4366 5.44627C18.6347 5.64587 18.7932 5.88338 18.9022 6.14585C19.0112 6.40831 19.0706 6.68874 19.0706 6.97316C19.0706 7.25758 19.0112 7.53801 18.9022 7.80047C18.7932 8.06294 18.6347 8.30045 18.4366 8.50004L14.9096 11.9929C14.7213 12.1795 14.6223 12.433 14.6223 12.6965C14.6223 12.9599 14.7213 13.2134 14.9096 13.4C15.0978 13.5857 15.3455 13.6905 15.613 13.6905C15.8706 13.6905 16.1183 13.5857 16.3065 13.4L19.8632 9.91715C20.6261 9.13874 21.0521 8.09387 21.0521 7.0031Z" fill="white" fill-opacity="0.6"/>
</svg>
